[Header]
FileType HTR
DataType HTRS
FileVersion 1
NumSegments 64
NumFrames 4
DataFrameRate 24
EulerRotationOrder ZYX
CalibrationUnits mm
RotationUnits Degrees
GlobalAxisofGravity Y
BoneLengthAxis Y
ScaleFactor 1.0
[SegmentNames&Hierarchy]
Hips	GLOBAL
Spine	Hips
Spine1	Spine
Spine2	Spine1
Neck	Spine2
Head	Neck
LeftEye	Head
RightEye	Head
LeftShoulder	Spine2
LeftArm	LeftShoulder
LeftForeArm	LeftArm
LeftHand	LeftForeArm
LeftHandThumb1	LeftHand
LeftHandThumb2	LeftHandThumb1
LeftHandThumb3	LeftHandThumb2
LeftHandThumb4	LeftHandThumb3
LeftHandIndex1	LeftHand
LeftHandIndex2	LeftHandIndex1
LeftHandIndex3	LeftHandIndex2
LeftHandIndex4	LeftHandIndex3
LeftHandMiddle1	LeftHand
LeftHandMiddle2	LeftHandMiddle1
LeftHandMiddle3	LeftHandMiddle2
LeftHandMiddle4	LeftHandMiddle3
LeftHandRing1	LeftHand
LeftHandRing2	LeftHandRing1
LeftHandRing3	LeftHandRing2
LeftHandRing4	LeftHandRing3
LeftHandPinky1	LeftHand
LeftHandPinky2	LeftHandPinky1
LeftHandPinky3	LeftHandPinky2
LeftHandPinky4	LeftHandPinky3
RightShoulder	Spine2
RightArm	RightShoulder
RightForeArm	RightArm
RightHand	RightForeArm
RightHandPinky1	RightHand
RightHandPinky2	RightHandPinky1
RightHandPinky3	RightHandPinky2
RightHandPinky4	RightHandPinky3
RightHandRing1	RightHand
RightHandRing2	RightHandRing1
RightHandRing3	RightHandRing2
RightHandRing4	RightHandRing3
RightHandMiddle1	RightHand
RightHandMiddle2	RightHandMiddle1
RightHandMiddle3	RightHandMiddle2
RightHandMiddle4	RightHandMiddle3
RightHandIndex1	RightHand
RightHandIndex2	RightHandIndex1
RightHandIndex3	RightHandIndex2
RightHandIndex4	RightHandIndex3
RightHandThumb1	RightHand
RightHandThumb2	RightHandThumb1
RightHandThumb3	RightHandThumb2
RightHandThumb4	RightHandThumb3
LeftUpLeg	Hips
LeftLeg	LeftUpLeg
LeftFoot	LeftLeg
LeftToeBase	LeftFoot
RightUpLeg	Hips
RightLeg	RightUpLeg
RightFoot	RightLeg
RightToeBase	RightFoot
[BasePosition]
Hips	0	0	0	0	0	0	1
Spine	0	0	0	0	0	0	1
Spine1	0	0	0	0	0	0	1
Spine2	0	0	0	0	0	0	1
Neck	0	0	0	0	0	0	1
Head	0	0	0	0	0	0	1
LeftEye	0	0	0	0	0	0	1
RightEye	0	0	0	0	0	0	1
LeftShoulder	0	0	0	0	0	0	1
LeftArm	0	0	0	0	0	0	1
LeftForeArm	0	0	0	0	0	0	1
LeftHand	0	0	0	0	0	0	1
LeftHandThumb1	0	0	0	0	0	0	1
LeftHandThumb2	0	0	0	0	0	0	1
LeftHandThumb3	0	0	0	0	0	0	1
LeftHandThumb4	0	0	0	0	0	0	1
LeftHandIndex1	0	0	0	0	0	0	1
LeftHandIndex2	0	0	0	0	0	0	1
LeftHandIndex3	0	0	0	0	0	0	1
LeftHandIndex4	0	0	0	0	0	0	1
LeftHandMiddle1	0	0	0	0	0	0	1
LeftHandMiddle2	0	0	0	0	0	0	1
LeftHandMiddle3	0	0	0	0	0	0	1
LeftHandMiddle4	0	0	0	0	0	0	1
LeftHandRing1	0	0	0	0	0	0	1
LeftHandRing2	0	0	0	0	0	0	1
LeftHandRing3	0	0	0	0	0	0	1
LeftHandRing4	0	0	0	0	0	0	1
LeftHandPinky1	0	0	0	0	0	0	1
LeftHandPinky2	0	0	0	0	0	0	1
LeftHandPinky3	0	0	0	0	0	0	1
LeftHandPinky4	0	0	0	0	0	0	1
RightShoulder	0	0	0	0	0	0	1
RightArm	0	0	0	0	0	0	1
RightForeArm	0	0	0	0	0	0	1
RightHand	0	0	0	0	0	0	1
RightHandPinky1	0	0	0	0	0	0	1
RightHandPinky2	0	0	0	0	0	0	1
RightHandPinky3	0	0	0	0	0	0	1
RightHandPinky4	0	0	0	0	0	0	1
RightHandRing1	0	0	0	0	0	0	1
RightHandRing2	0	0	0	0	0	0	1
RightHandRing3	0	0	0	0	0	0	1
RightHandRing4	0	0	0	0	0	0	1
RightHandMiddle1	0	0	0	0	0	0	1
RightHandMiddle2	0	0	0	0	0	0	1
RightHandMiddle3	0	0	0	0	0	0	1
RightHandMiddle4	0	0	0	0	0	0	1
RightHandIndex1	0	0	0	0	0	0	1
RightHandIndex2	0	0	0	0	0	0	1
RightHandIndex3	0	0	0	0	0	0	1
RightHandIndex4	0	0	0	0	0	0	1
RightHandThumb1	0	0	0	0	0	0	1
RightHandThumb2	0	0	0	0	0	0	1
RightHandThumb3	0	0	0	0	0	0	1
RightHandThumb4	0	0	0	0	0	0	1
LeftUpLeg	0	0	0	0	0	0	1
LeftLeg	0	0	0	0	0	0	1
LeftFoot	0	0	0	0	0	0	1
LeftToeBase	0	0	0	0	0	0	1
RightUpLeg	0	0	0	0	0	0	1
RightLeg	0	0	0	0	0	0	1
RightFoot	0	0	0	0	0	0	1
RightToeBase	0	0	0	0	0	0	1
[Hips]
502	147.8566132	980.8100586	-201.4680328	170.4495544	229.053009	-537.6073608	1.0
503	118.2146759	987.796936	-217.5575867	175.6617432	231.5442963	-542.8815918	1.0
504	86.11359406	978.6177979	-237.5278473	180.9381409	233.6577301	-547.3095093	1.0
505	56.3673172	959.1785889	-259.1816406	185.1231995	235.025528	-551.5113525	1.0
[Spine]
502	0	101.8159943	1.315000057	22.56120872	-3.28647089	-9.47293663	1.0
503	0	101.8159943	1.315000057	19.02114105	-4.53403616	-9.948720932	1.0
504	0	101.8159943	1.315000057	14.31768703	-6.580419064	-12.36363029	1.0
505	0	101.8159943	1.315000057	12.25246143	-9.648138046	-14.45879555	1.0
[Spine1]
502	0	100.8349991	-10.00800037	-1.351173282	-0.7372527122	1.46593833	1.0
503	0	100.8349991	-10.00800037	-1.462864757	-0.9725726843	3.733440638	1.0
504	0	100.8349991	-10.00800037	-1.005764365	-1.28531003	6.552790642	1.0
505	0	100.8349991	-10.00800037	-0.6159930229	-1.723709702	8.798595428	1.0
[Spine2]
502	0	91	-13.73399925	-1.324563265	-0.6989875436	1.507932067	1.0
503	0	91	-13.73399925	-1.394650459	-0.8754369617	3.781664371	1.0
504	0	91	-13.73399925	-0.8577984571	-1.167728186	6.592980385	1.0
505	0	91	-13.73399925	-0.3622556031	-1.615871906	8.828902245	1.0
[Neck]
502	0	166.7169952	-25.16200066	-11.40529442	5.546304226	-1.229299664	1.0
503	0	166.7169952	-25.16200066	-9.376219749	6.161154747	-0.7499642968	1.0
504	0	166.7169952	-25.16200066	-6.369840145	6.863552094	-0.1509022862	1.0
505	0	166.7169952	-25.16200066	-3.743106604	7.537853241	0.6329741478	1.0
[Head]
502	0	96.17900085	16.84999847	-26.34267616	29.09980392	5.542754173	1.0
503	0	96.17900085	16.84999847	-22.82906723	31.20656586	4.17705965	1.0
504	0	96.17900085	16.84999847	-20.24120331	34.01650238	2.870788097	1.0
505	0	96.17900085	16.84999847	-18.56751823	37.38940048	2.192132235	1.0
[LeftEye]
502	30.6760006	64.09500122	92.83599854	0	0	0	1.0
503	30.6760006	64.09500122	92.83599854	0	0	0	1.0
504	30.6760006	64.09500122	92.83599854	0	0	0	1.0
505	30.6760006	64.09500122	92.83599854	0	0	0	1.0
[RightEye]
502	-30.6760006	64.09500122	92.83499908	0	0	0	1.0
503	-30.6760006	64.09500122	92.83499908	0	0	0	1.0
504	-30.6760006	64.09500122	92.83499908	0	0	0	1.0
505	-30.6760006	64.09500122	92.83499908	0	0	0	1.0
[LeftShoulder]
502	45.70400238	109.4599991	-26.28000069	1.550341129	-2.551495314	-19.07859039	1.0
503	45.70400238	109.4599991	-26.28000069	1.575929999	-4.009784698	-14.05179596	1.0
504	45.70400238	109.4599991	-26.28000069	1.553867459	-5.011400223	-11.04382992	1.0
505	45.70400238	109.4599991	-26.28000069	1.304193258	-5.101881027	-7.592635632	1.0
[LeftArm]
502	105.923996	-5.24600029	-22.32099915	17.50945473	-24.77071953	-2.193511963	1.0
503	105.923996	-5.24600029	-22.32099915	2.067216635	-21.12594414	8.25158596	1.0
504	105.923996	-5.24600029	-22.32099915	-16.43437576	-15.2602663	16.81311989	1.0
505	105.923996	-5.24600029	-22.32099915	-27.67319679	-9.03086853	24.20331955	1.0
[LeftForeArm]
502	278.414978	-0.0009999999311	0	1.810530534e-07	-16.93730927	-0.0002098341647	1.0
503	278.414978	-0.0009999999311	0	1.082426252e-06	-25.24369621	-0.0002033477358	1.0
504	278.414978	-0.0009999999311	0	5.381729125e-07	-30.80462074	-0.000204421638	1.0
505	278.414978	-0.0009999999311	0	7.784778973e-07	-33.2990303	-0.0002053949429	1.0
[LeftHand]
502	283.2879944	0	0	-25.44725418	8.520846367	6.460075855	1.0
503	283.2879944	0	0	-13.94573784	9.06843853	14.77501106	1.0
504	283.2879944	0	0	-4.646504402	7.258584976	22.16003227	1.0
505	283.2879944	0	0	3.462764263	2.861517668	29.05729485	1.0
[LeftHandThumb1]
502	24.6609993	-15.75	26.8239994	1.205893993	8.072283745	6.06177187	1.0
503	24.6609993	-15.75	26.8239994	1.014153838	5.686943054	3.612748146	1.0
504	24.6609993	-15.75	26.8239994	0.0679077208	3.668950081	3.182810545	1.0
505	24.6609993	-15.75	26.8239994	-1.523185849	2.67267561	4.959269047	1.0
[LeftHandThumb2]
502	32.29800034	-18.64699936	18.64699936	1.251022935	-0.2632229328	-0.8461242914	1.0
503	32.29800034	-18.64699936	18.64699936	1.245960355	-0.2413212955	-0.9148490429	1.0
504	32.29800034	-18.64699936	18.64699936	1.229596138	-0.2080995589	-1.007781982	1.0
505	32.29800034	-18.64699936	18.64699936	1.323920369	0.09804410487	-1.002968669	1.0
[LeftHandThumb3]
502	26.52600098	-15.31499958	15.31499958	-4.404407978	-4.480158806	3.834887028	1.0
503	26.52600098	-15.31499958	15.31499958	-4.467337608	-4.799963474	3.861076117	1.0
504	26.52600098	-15.31499958	15.31499958	-4.558502197	-4.956329346	3.874934435	1.0
505	26.52600098	-15.31499958	15.31499958	-4.677364826	-5.000608444	3.883331537	1.0
[LeftHandThumb4]
502	19.54599953	-11.28499985	11.28499985	0	0	0	1.0
503	19.54599953	-11.28499985	11.28499985	0	0	0	1.0
504	19.54599953	-11.28499985	11.28499985	0	0	0	1.0
505	19.54599953	-11.28499985	11.28499985	0	0	0	1.0
[LeftHandIndex1]
502	91.09299469	-5.170999527	22.60099792	-0.1255092472	-5.711959839	11.76373196	1.0
503	91.09299469	-5.170999527	22.60099792	-0.1326756328	-7.53787899	12.74865246	1.0
504	91.09299469	-5.170999527	22.60099792	-0.2274639159	-8.711731911	16.21306419	1.0
505	91.09299469	-5.170999527	22.60099792	-0.4373322725	-9.245117188	21.54028893	1.0
[LeftHandIndex2]
502	36.76399994	0	0	-0.00103657716	0.1194139868	-0.9932765365	1.0
503	36.76399994	0	0	-2.533573706e-06	0.001182231586	-0.009949618019	1.0
504	36.76399994	0	0	-3.974339506e-06	4.608195923e-06	-3.60825652e-05	1.0
505	36.76399994	0	0	1.862323842e-07	1.776720637e-05	-1.894718844e-05	1.0
[LeftHandIndex3]
502	28.83100128	0	0	-0.1104519889	1.228482366	-10.27489948	1.0
503	28.83100128	0	0	-0.09048588574	1.112752914	-9.297622681	1.0
504	28.83100128	0	0	-0.06727609038	0.9603210688	-8.014755249	1.0
505	28.83100128	0	0	-0.04511684552	0.787119925	-6.561917782	1.0
[LeftHandIndex4]
502	23.92700005	0	0	0	0	0	1.0
503	23.92700005	0	0	0	0	0	1.0
504	23.92700005	0	0	0	0	0	1.0
505	23.92700005	0	0	0	0	0	1.0
[LeftHandMiddle1]
502	95.33399963	0	0	-0.01283519715	1.171416402	3.94547534	1.0
503	95.33399963	0	0	-0.05404330045	0.5520046949	7.353393555	1.0
504	95.33399963	0	0	-0.1516714245	-0.1298486292	12.13550282	1.0
505	95.33399963	0	0	-0.3252739906	-0.8119410276	17.73570061	1.0
[LeftHandMiddle2]
502	36.98199844	0	0	-5.561994953e-07	-7.977317728e-05	2.541452341e-05	1.0
503	36.98199844	0	0	2.071404651e-06	-6.035640035e-05	-4.741677185e-05	1.0
504	36.98199844	0	0	-3.656898571e-06	-6.353046774e-05	-1.458957968e-06	1.0
505	36.98199844	0	0	1.086219982e-05	-6.100002065e-05	1.350675029e-05	1.0
[LeftHandMiddle3]
502	29.50900078	0	0	-0.0672833994	0.9603657722	-8.015151024	1.0
503	29.50900078	0	0	-0.05497099087	0.8684696555	-7.243709087	1.0
504	29.50900078	0	0	-0.0452776663	0.7884882092	-6.573412895	1.0
505	29.50900078	0	0	-0.03519085422	0.6952984333	-5.793495178	1.0
[LeftHandMiddle4]
502	28.3390007	0	0	0	0	0	1.0
503	28.3390007	0	0	0	0	0	1.0
504	28.3390007	0	0	0	0	0	1.0
505	28.3390007	0	0	0	0	0	1.0
[LeftHandRing1]
502	91.04499817	-0.4390000105	-18.65100098	0.03345628455	7.667923927	-4.126760483	1.0
503	91.04499817	-0.4390000105	-18.65100098	0.06767440587	8.076514244	1.650216341	1.0
504	91.04499817	-0.4390000105	-18.65100098	0.01280791964	7.763422012	7.916551113	1.0
505	91.04499817	-0.4390000105	-18.65100098	-0.1343487948	6.86189127	14.13502502	1.0
[LeftHandRing2]
502	31.54000092	0	0	-0.002778696129	0.1956429929	-1.627500534	1.0
503	31.54000092	0	0	-9.150372193e-08	0.0004415716394	-0.003744385438	1.0
504	31.54000092	0	0	2.330891675e-06	-2.492453632e-06	-5.426544158e-05	1.0
505	31.54000092	0	0	2.381714921e-06	-1.057340069e-05	4.122164682e-06	1.0
[LeftHandRing3]
502	29.37700081	0	0	-0.2528253198	1.848656416	-15.57335663	1.0
503	29.37700081	0	0	-0.1458468288	1.409789681	-11.81230164	1.0
504	29.37700081	0	0	-0.09556422383	1.143358469	-9.555762291	1.0
505	29.37700081	0	0	-0.06410983205	0.937559545	-7.823495388	1.0
[LeftHandRing4]
502	26.47500038	0	0	0	0	0	1.0
503	26.47500038	0	0	0	0	0	1.0
504	26.47500038	0	0	0	0	0	1.0
505	26.47500038	0	0	0	0	0	1.0
[LeftHandPinky1]
502	80.77799988	-4.887000084	-38.06099701	0.2928998172	19.83850479	-8.813825607	1.0
503	80.77799988	-4.887000084	-38.06099701	0.5104692578	21.39798164	0.924682796	1.0
504	80.77799988	-4.887000084	-38.06099701	0.4483056962	21.37222672	10.49978733	1.0
505	80.77799988	-4.887000084	-38.06099701	0.1421456039	20.02176476	19.22384453	1.0
[LeftHandPinky2]
502	36	0	0	0.01661688648	-4.056925774	-0.4891531467	1.0
503	36	0	0	0.01736107841	-4.055600643	-0.4998134971	1.0
504	36	0	0	0.01820833236	-4.054171562	-0.5119290948	1.0
505	36	0	0	0.01689962111	-4.05639267	-0.4933316112	1.0
[LeftHandPinky3]
502	21.14200211	0	0	-0.1838455051	1.580548048	-13.26842403	1.0
503	21.14200211	0	0	-0.1133606359	1.24438715	-10.40955544	1.0
504	21.14200211	0	0	-0.05505794287	0.8691476583	-7.249365807	1.0
505	21.14200211	0	0	-0.03409310058	0.6844662428	-5.702936172	1.0
[LeftHandPinky4]
502	19.75699997	0	0	0	0	0	1.0
503	19.75699997	0	0	0	0	0	1.0
504	19.75699997	0	0	0	0	0	1.0
505	19.75699997	0	0	0	0	0	1.0
[RightShoulder]
502	-45.70000076	109.4620056	-26.28000069	-0.1501280367	-1.437589884	-17.96362877	1.0
503	-45.70000076	109.4620056	-26.28000069	0.01873231307	-1.265013695	-8.700151443	1.0
504	-45.70000076	109.4620056	-26.28000069	0.1624989957	-1.183639765	-1.650730252	1.0
505	-45.70000076	109.4620056	-26.28000069	0.2973022759	-1.168573618	4.843420029	1.0
[RightArm]
502	-105.9280014	-5.248000145	-22.32099915	-64.47762299	-10.44053078	25.16676521	1.0
503	-105.9280014	-5.248000145	-22.32099915	-57.46483612	-13.249547	26.76413536	1.0
504	-105.9280014	-5.248000145	-22.32099915	-48.9846077	-15.52164173	29.31922722	1.0
505	-105.9280014	-5.248000145	-22.32099915	-40.3771286	-17.68926239	33.13591385	1.0
[RightForeArm]
502	-278.414978	0	0	7.416496373e-05	83.17644501	5.315151429e-05	1.0
503	-278.414978	0	0	1.491424155e-05	80.89646149	3.411420766e-05	1.0
504	-278.414978	0	0	-6.11631458e-06	76.20368195	-1.881066419e-05	1.0
505	-278.414978	0	0	-1.694717866e-05	71.25862122	-1.498407892e-05	1.0
[RightHand]
502	-283.2879944	0	0.0009999999311	12.78151894	11.87138939	-27.11935806	1.0
503	-283.2879944	0	0.0009999999311	12.08658695	12.65345287	-29.1181488	1.0
504	-283.2879944	0	0.0009999999311	12.14543819	14.66806602	-30.99443054	1.0
505	-283.2879944	0	0.0009999999311	13.15020943	15.08987617	-30.9655056	1.0
[RightHandPinky1]
502	-80.76699829	-4.885000229	-38.06000137	-0.7721840739	-8.136223793	-29.41246986	1.0
503	-80.76699829	-4.885000229	-38.06000137	-0.7826251984	-7.426095486	-29.33533669	1.0
504	-80.76699829	-4.885000229	-38.06000137	-0.6750336885	-7.409551144	-27.42443657	1.0
505	-80.76699829	-4.885000229	-38.06000137	-0.538875103	-7.905528069	-25.01465797	1.0
[RightHandPinky2]
502	-36	0	0.0009999999311	-0.0009346712031	-0.1141353175	0.9533438683	1.0
503	-36	0	0.0009999999311	-0.000936218421	-0.1141388565	0.953371048	1.0
504	-36	0	0.0009999999311	-0.002739192452	-0.1951126307	1.620618463	1.0
505	-36	0	0.0009999999311	-0.007506326772	-0.3229070902	2.674037218	1.0
[RightHandPinky3]
502	-21.14200211	0	0	-0.002032300923	-0.1680853665	1.384749651	1.0
503	-21.14200211	0	0	-0.00133907178	-0.1365128011	1.124612212	1.0
504	-21.14200211	0	0	-5.151730875e-06	0.004779371899	-0.03930262104	1.0
505	-21.14200211	0	0	-0.003100361442	0.207816124	-1.712020159	1.0
[RightHandPinky4]
502	-19.75699997	0	0	0	0	0	1.0
503	-19.75699997	0	0	0	0	0	1.0
504	-19.75699997	0	0	0	0	0	1.0
505	-19.75699997	0	0	0	0	0	1.0
[RightHandRing1]
502	-91.03599548	-0.4390000105	-18.65100098	-0.6858146787	-2.445966005	-26.21111298	1.0
503	-91.03599548	-0.4390000105	-18.65100098	-0.7160878181	-1.704819918	-26.64117241	1.0
504	-91.03599548	-0.4390000105	-18.65100098	-0.666672051	-1.379839063	-25.64525414	1.0
505	-91.03599548	-0.4390000105	-18.65100098	-0.5942067504	-1.362691164	-24.2057209	1.0
[RightHandRing2]
502	-31.54000092	0	0	-9.634158005e-07	-2.771456138e-06	3.238104182e-05	1.0
503	-31.54000092	0	0	-8.028743537e-07	-2.261025884e-06	2.821313683e-05	1.0
504	-31.54000092	0	0	-3.190865527e-07	-2.198427637e-06	2.15590735e-05	1.0
505	-31.54000092	0	0	3.230398534e-06	-2.671858283e-06	2.368178684e-05	1.0
[RightHandRing3]
502	-29.37700081	0	0	-0.9303823709	0.1590969265	-1.31058681	1.0
503	-29.37700081	0	0	-0.9692356586	0.2206768095	-1.818169475	1.0
504	-29.37700081	0	0	-0.9002315998	0.3169374168	-2.61214447	1.0
505	-29.37700081	0	0	-0.7692657709	0.4311568737	-3.554038525	1.0
[RightHandRing4]
502	-26.47500038	0	0	0	0	0	1.0
503	-26.47500038	0	0	0	0	0	1.0
504	-26.47500038	0	0	0	0	0	1.0
505	-26.47500038	0	0	0	0	0	1.0
[RightHandMiddle1]
502	-95.32500458	0	0	-0.8646597266	2.679334879	-28.90432167	1.0
503	-95.32500458	0	0	-0.935539186	3.634996653	-30.07669067	1.0
504	-95.32500458	0	0	-0.9137442708	4.347671509	-29.7227211	1.0
505	-95.32500458	0	0	-0.8581972122	4.882258415	-28.8123703	1.0
[RightHandMiddle2]
502	-36.98199844	0	0	-2.566993317e-06	-4.819056812e-06	5.269510439e-05	1.0
503	-36.98199844	0	0	-1.181231468e-07	-3.504327879e-06	3.57517747e-05	1.0
504	-36.98199844	0	0	4.476356992e-07	-1.779099421e-06	1.785889799e-05	1.0
505	-36.98199844	0	0	5.292922651e-07	-2.808962563e-06	2.373812276e-05	1.0
[RightHandMiddle3]
502	-29.50900078	0	0	-0.2108360827	0.253407836	-2.104339123	1.0
503	-29.50900078	0	0	-0.2458542734	0.3698460758	-3.064777136	1.0
504	-29.50900078	0	0	-0.1792370677	0.4637281895	-3.839842319	1.0
505	-29.50900078	0	0	-0.03815424815	0.5363267064	-4.439296722	1.0
[RightHandMiddle4]
502	-28.3390007	0	0.0009999999311	0	0	0	1.0
503	-28.3390007	0	0.0009999999311	0	0	0	1.0
504	-28.3390007	0	0.0009999999311	0	0	0	1.0
505	-28.3390007	0	0.0009999999311	0	0	0	1.0
[RightHandIndex1]
502	-91.08300018	-5.167999744	22.60099792	-0.951331079	7.458656311	-30.58300591	1.0
503	-91.08300018	-5.167999744	22.60099792	-1.078959346	8.836725235	-32.71240234	1.0
504	-91.08300018	-5.167999744	22.60099792	-1.086708903	10.10093689	-33.0134201	1.0
505	-91.08300018	-5.167999744	22.60099792	-1.0419209	11.27931499	-32.56619644	1.0
[RightHandIndex2]
502	-36.76399994	0	0	-6.098187441e-06	-0.007217315026	0.05946374685	1.0
503	-36.76399994	0	0	-5.498536098e-07	-2.901829248e-06	2.592411511e-05	1.0
504	-36.76399994	0	0	1.983123866e-06	-2.520542921e-06	1.758293547e-05	1.0
505	-36.76399994	0	0	1.360133979e-06	-4.243440344e-06	3.704426126e-05	1.0
[RightHandIndex3]
502	-28.83100128	0	0	-0.002761498094	0.1960570514	-1.615244627	1.0
503	-28.83100128	0	0	-0.008781580254	0.3493748009	-2.879223108	1.0
504	-28.83100128	0	0	-0.01536690537	0.4620814025	-3.809322119	1.0
505	-28.83100128	0	0	-0.02066898905	0.5357928872	-4.418108463	1.0
[RightHandIndex4]
502	-23.92700005	0	0	0	0	0	1.0
503	-23.92700005	0	0	0	0	0	1.0
504	-23.92700005	0	0	0	0	0	1.0
505	-23.92700005	0	0	0	0	0	1.0
[RightHandThumb1]
502	-24.64799881	-15.72700024	26.82600021	2.797776699	-14.66908836	-20.03925323	1.0
503	-24.64799881	-15.72700024	26.82600021	1.733911991	-13.81420803	-19.55397987	1.0
504	-24.64799881	-15.72700024	26.82600021	0.7882447839	-13.03209782	-19.17210388	1.0
505	-24.64799881	-15.72700024	26.82600021	0.02690864541	-12.42209148	-18.99142456	1.0
[RightHandThumb2]
502	-32.29800034	-18.64699936	18.64699936	2.085031271	0.449889034	1.328607202	1.0
503	-32.29800034	-18.64699936	18.64699936	2.083526134	0.3900801837	1.52923286	1.0
504	-32.29800034	-18.64699936	18.64699936	2.062406301	0.3059471846	1.663800597	1.0
505	-32.29800034	-18.64699936	18.64699936	2.138255119	-0.08372984827	1.610687017	1.0
[RightHandThumb3]
502	-26.52600098	-15.31399918	15.31399918	-5.75052166	7.131962776	-3.576864958	1.0
503	-26.52600098	-15.31399918	15.31399918	-5.651038647	6.895451069	-3.581905127	1.0
504	-26.52600098	-15.31399918	15.31399918	-5.466751575	6.550033092	-3.547633648	1.0
505	-26.52600098	-15.31399918	15.31399918	-5.261749744	6.20045042	-3.499180555	1.0
[RightHandThumb4]
502	-19.54599953	-11.28499985	11.28499985	0	0	0	1.0
503	-19.54599953	-11.28499985	11.28499985	0	0	0	1.0
504	-19.54599953	-11.28499985	11.28499985	0	0	0	1.0
505	-19.54599953	-11.28499985	11.28499985	0	0	0	1.0
[LeftUpLeg]
502	82.07800293	-67.51699829	-15.99599934	-3.234272957	9.030772209	5.586380482	1.0
503	82.07800293	-67.51699829	-15.99599934	-1.749926209	12.05681229	11.94666958	1.0
504	82.07800293	-67.51699829	-15.99599934	-2.84610033	13.81811142	18.60032082	1.0
505	82.07800293	-67.51699829	-15.99599934	-3.922083139	16.12592697	23.00660324	1.0
[LeftLeg]
502	0	-443.7049866	2.845999956	35.26596451	10.83224487	-5.551345825	1.0
503	0	-443.7049866	2.845999956	33.25999832	8.264181137	-6.849746704	1.0
504	0	-443.7049866	2.845999956	37.43799973	9.958449364	-4.00910759	1.0
505	0	-443.7049866	2.845999956	41.53865433	0.3346866071	-2.59913969	1.0
[LeftFoot]
502	0	-444.2789917	-29.8219986	-26.5506115	27.27704048	-10.85306168	1.0
503	0	-444.2789917	-29.8219986	-25.62322807	26.2175808	-12.21436977	1.0
504	0	-444.2789917	-29.8219986	-22.76667023	13.1327877	-13.48137856	1.0
505	0	-444.2789917	-29.8219986	-23.77983093	2.715058327	-13.36706924	1.0
[LeftToeBase]
502	0	-87.28699493	107.1060028	-0.9398514628	-4.651365089e-06	-2.287805046e-06	1.0
503	0	-87.28699493	107.1060028	-1.771820784	-1.65121628e-06	1.151896299e-06	1.0
504	0	-87.28699493	107.1060028	-5.248844147	-2.004073394e-06	5.365965535e-06	1.0
505	0	-87.28699493	107.1060028	-6.043478489	4.496395832e-06	1.741333676e-06	1.0
[RightUpLeg]
502	-82.07800293	-67.51699829	-15.99599934	-25.48706627	-4.380926132	-10.58431244	1.0
503	-82.07800293	-67.51699829	-15.99599934	-19.53655815	-1.606977105	-8.603031158	1.0
504	-82.07800293	-67.51699829	-15.99599934	-14.22782898	2.295149803	-7.21006155	1.0
505	-82.07800293	-67.51699829	-15.99599934	-15.45618153	8.539891243	-6.210225582	1.0
[RightLeg]
502	0	-443.7049866	2.861999989	47.10759354	-8.856201172	-5.445139885	1.0
503	0	-443.7049866	2.861999989	43.01813889	-6.089403629	-8.174118996	1.0
504	0	-443.7049866	2.861999989	36.00443649	-2.336107731	-6.013885498	1.0
505	0	-443.7049866	2.861999989	39.51807022	-6.576586723	-1.462351322	1.0
[RightFoot]
502	0	-444.2770081	-29.83799934	-5.912073135	-17.67885208	1.787469745	1.0
503	0	-444.2770081	-29.83799934	-4.395636559	-9.22842598	4.504743576	1.0
504	0	-444.2770081	-29.83799934	-9.748260498	-1.328595996	19.9508152	1.0
505	0	-444.2770081	-29.83799934	-20.57109451	1.582548976	18.25605392	1.0
[RightToeBase]
502	0	-87.28699493	107.1060028	5.654286861	4.2534366e-06	8.291955055e-06	1.0
503	0	-87.28699493	107.1060028	2.045017004	-0.2548162937	3.548303604	1.0
504	0	-87.28699493	107.1060028	-1.155681372	0.04986108094	-2.288066626	1.0
505	0	-87.28699493	107.1060028	3.703063488	0.07401784509	-0.9898976088	1.0
[EndOfFile]
